<svg xmlns="http://www.w3.org/2000/svg" width="27.246" height="31" viewBox="0 0 27.246 31"><defs><style>.a{fill:#b5bcc3;}</style></defs><g transform="translate(-31)"><path class="a" d="M56.43,31V5.449h1.816V0H31V5.449h1.816V31Zm-.816-.816H33.633V5.449h21.98ZM31.816.816H57.43V4.633H31.816Z"/><path class="a" d="M133.715,121H121v9.082h12.715Zm-.816,8.266H121.816v-7.449H132.9Z" transform="translate(-84.551 -113.674)"/><path class="a" d="M121,301h9.082v1.816H121Z" transform="translate(-84.551 -282.775)"/><path class="a" d="M121,361h1.816v1.816H121Z" transform="translate(-84.551 -339.143)"/><path class="a" d="M181,361h1.816v1.816H181Z" transform="translate(-140.918 -339.143)"/><path class="a" d="M121,421h1.816v1.816H121Z" transform="translate(-84.551 -395.51)"/><path class="a" d="M181,421h1.816v1.816H181Z" transform="translate(-140.918 -395.51)"/><path class="a" d="M241,361h1.816v1.816H241Z" transform="translate(-197.285 -339.143)"/><path class="a" d="M241,421h1.816v1.816H241Z" transform="translate(-197.285 -395.51)"/><path class="a" d="M361,121h1.816v1.816H361Z" transform="translate(-310.02 -113.674)"/><path class="a" d="M361,181h1.816v1.816H361Z" transform="translate(-310.02 -170.041)"/><path class="a" d="M361,241h1.816v1.816H361Z" transform="translate(-310.02 -226.408)"/><path class="a" d="M301,308.266h5.449V301H301Zm.816-6.449h3.816v5.633h-3.816Z" transform="translate(-253.652 -282.775)"/></g></svg>