<svg width="18" height="21" viewBox="0 0 18 21" fill="none" xmlns="http://www.w3.org/2000/svg">
<path fill-rule="evenodd" clip-rule="evenodd" d="M13 4V5H17L18 21H0L1 5H5V4C5 1.79086 6.79086 0 9 0C11.2091 0 13 1.79086 13 4ZM9 2C10.1046 2 11 2.89543 11 4V5H7V4C7 2.89543 7.89543 2 9 2ZM7 8C7 8.55229 6.55229 9 6 9C5.44771 9 5 8.55229 5 8C5 7.44771 5.44771 7 6 7C6.55229 7 7 7.44771 7 8ZM13 8C13 8.55229 12.5523 9 12 9C11.4477 9 11 8.55229 11 8C11 7.44771 11.4477 7 12 7C12.5523 7 13 7.44771 13 8Z" fill="#0B1F35"/>
</svg>
