<svg width="18" height="16" viewBox="0 0 18 16" fill="none" xmlns="http://www.w3.org/2000/svg">
<path d="M13.6633 1.74805H18V4.24805H13.6678C13.2361 4.99745 12.427 5.50195 11.5 5.50195C10.573 5.50195 9.7639 4.99745 9.3322 4.24805H0V1.74805H9.33672C9.76953 1.00295 10.5763 0.501953 11.5 0.501953C12.4237 0.501953 13.2305 1.00295 13.6633 1.74805Z" fill="#0B1F35"/>
<path d="M18 11.748H8.66554C8.23328 11.0008 7.42535 10.498 6.5 10.498C5.57465 10.498 4.76672 11.0008 4.33446 11.748H0V14.248H4.33446C4.76672 14.9953 5.57465 15.498 6.5 15.498C7.42535 15.498 8.23328 14.9953 8.66554 14.248H18V11.748Z" fill="#0B1F35"/>
</svg>
