<svg width="20" height="20" viewBox="0 0 20 20" fill="none" xmlns="http://www.w3.org/2000/svg">
<path fill-rule="evenodd" clip-rule="evenodd" d="M8 0H12V2.25203C13.4407 2.62285 14.7244 3.3849 15.7309 4.41819L17.9999 3.00012L19.9999 6.50012L17.7271 7.92059C17.9051 8.58366 18 9.28075 18 10C18 10.7192 17.9051 11.4163 17.7271 12.0794L20.0002 13.5001L18.0002 17.0001L15.7309 15.5818C14.7244 16.6151 13.4407 17.3771 12 17.748V20H8V17.748C6.5593 17.3772 5.27566 16.6151 4.26909 15.5818L1.99992 17L0 13.5L2.27292 12.0794C2.09492 11.4164 2 10.7193 2 10C2 9.28076 2.09491 8.58369 2.2729 7.92063L-0.000244141 6.5L1.99976 3L4.26903 4.41824C5.2756 3.38493 6.55926 2.62285 8 2.25203V0ZM10 13.5C11.933 13.5 13.5 11.933 13.5 10C13.5 8.067 11.933 6.5 10 6.5C8.067 6.5 6.5 8.067 6.5 10C6.5 11.933 8.067 13.5 10 13.5Z" fill="#0B1F35"/>
</svg>
